<?xml version="1.0" encoding="UTF-8"?>
<svg width="51px" height="58px" viewBox="0 0 51 58" version="1.1" xmlns="http://www.w3.org/2000/svg" xmlns:xlink="http://www.w3.org/1999/xlink">
    <title>pool</title>
    <g id="Wireframes" stroke="none" stroke-width="1" fill="none" fill-rule="evenodd">
        <g id="COMMERCIAL" transform="translate(-1313.000000, -1559.000000)" fill="#000000" fill-rule="nonzero">
            <g id="Group-14" transform="translate(1264.000000, 1513.000000)">
                <g id="pool" transform="translate(49.000000, 46.000000)">
                    <path d="M49.7541088,42.4389941 C48.9792133,41.8916554 47.9071954,42.0758364 47.3595845,42.8503465 C47.3523404,42.8604154 46.5788033,43.8923037 45.1254499,44.5580928 C43.0608731,45.5037736 40.6561618,45.2719636 37.9783242,43.868772 C37.8719261,43.8129973 37.7642828,43.7574489 37.6561869,43.7021267 L37.6561869,12.24294 C37.6561869,7.38590367 41.6097835,3.43438581 46.4691226,3.43438581 C47.4179903,3.43438581 48.1872263,2.6655323 48.1872263,1.71713634 C48.1871131,0.768853509 47.4178771,0 46.4690094,0 C39.7147646,0 34.2199795,5.49216634 34.2199795,12.24294 L34.2199795,17.4872314 L7.34776956,17.4872314 L7.34776956,12.24294 C7.34776956,7.3860168 11.301253,3.43449894 16.1607053,3.43449894 C17.109573,3.43449894 17.878809,2.66564543 17.878809,1.71724947 C17.878809,0.768853509 17.109573,0 16.1607053,0 C9.40657368,0 3.91167541,5.49216634 3.91167541,12.24294 L3.91167541,42.3680595 C2.95307339,42.7412861 1.98269967,43.152186 1.00010147,43.6041533 C0.138163305,44.0006853 -0.238870975,45.0205815 0.157745091,45.8820911 C0.554587537,46.7436008 1.57499103,47.1204476 2.4369292,46.7239156 C17.2190273,39.9224582 29.055821,43.0712957 36.3826916,46.9104723 C38.7076043,48.128691 40.7511278,48.5576923 42.4771547,48.5576923 C44.1445495,48.5576923 45.5159537,48.1569743 46.5569577,47.6801177 C48.8500641,46.6295625 50.0377617,45.0132278 50.1655527,44.8323278 C50.7132767,44.0578176 50.5290042,42.9863327 49.7541088,42.4389941 Z M34.2199795,42.1334212 C27.4567927,39.4140374 18.2781416,37.8366207 7.34776956,41.1752957 L7.34776956,33.0277791 L34.2199795,33.0277791 L34.2199795,42.1334212 Z M34.2199795,29.5933933 L7.34776956,29.5933933 L7.34776956,20.9217303 L34.2199795,20.9217303 L34.2199795,29.5933933 Z" id="Shape"></path>
                    <path d="M49.7541071,51.6641348 C48.97921,51.1250054 47.9071896,51.30635 47.3595775,52.0694013 C47.3523334,52.0793212 46.5787945,53.0959429 45.1254379,53.7518817 C43.0608564,54.6836827 40.6561398,54.4550794 37.9782962,53.0727593 C29.9683089,48.9378366 17.0507527,45.5358713 1.00010372,52.8120557 C0.138163615,53.202721 -0.23887151,54.207528 0.157745445,55.0562917 C0.55458878,55.9050554 1.57488137,56.2763268 2.43682147,55.8856614 C17.2189527,49.1848308 29.0556598,52.2870817 36.38266,56.0694581 C38.7075779,57.2696534 40.751106,57.6924191 42.4771368,57.6923077 C44.1445353,57.6923077 45.5159426,57.2975183 46.5569489,56.8277167 C48.8500604,55.7927043 50.0377607,54.2002831 50.1655519,54.0220594 C50.7132772,53.2590081 50.5290043,52.2033756 49.7541071,51.6641348 Z" id="Path"></path>
                </g>
            </g>
        </g>
    </g>
</svg>