<?xml version="1.0" encoding="UTF-8"?>
<svg width="150px" height="150px" viewBox="0 0 150 150" version="1.1" xmlns="http://www.w3.org/2000/svg" xmlns:xlink="http://www.w3.org/1999/xlink">
    <title>Group 60</title>
    <defs>
        <polygon id="path-1" points="0.590625 3.1753125 9.1640625 3.1753125 9.1640625 14.0625 0.590625 14.0625"></polygon>
    </defs>
    <g id="Wireframes" stroke="none" stroke-width="1" fill="none" fill-rule="evenodd">
        <g id="COMMERCIAL" transform="translate(-1264.000000, -1513.000000)">
            <g id="Group-60" transform="translate(1264.000000, 1513.000000)">
                <path d="M81.7176563,142.297031 C82.1301562,144.959531 83.2317187,145.484531 85.3410937,145.161094 C86.0629687,145.048594 86.7285937,144.931406 87.3473437,144.804844 C87.2020312,143.764219 87.0239062,142.526719 86.8410937,141.345469 C86.5973437,139.765781 86.4426562,138.781406 86.3160938,138.031406 C85.6176562,138.097031 85.0879688,138.181406 84.3379688,138.293906 C82.1864063,138.626719 81.2910937,139.550156 81.7176563,142.297031 L81.7176563,142.297031 Z M85.6176562,146.937656 C82.1067187,147.476719 80.2785937,146.398594 79.6973437,142.653281 C79.1207813,138.917344 80.3864063,137.089219 84.0520312,136.522031 L88.1160937,135.893906 C88.2942187,137.328281 88.5379688,138.879844 88.8754687,141.087656 C89.2176563,143.295469 89.4848437,145.029844 89.7239062,146.300156 L85.6176562,146.937656 Z" id="Fill-1" fill="#000000"></path>
                <g id="Group-5" transform="translate(65.625000, 133.901719)">
                    <mask id="mask-2" fill="white">
                        <use xlink:href="#path-1"></use>
                    </mask>
                    <g id="Clip-4"></g>
                    <path d="M0.590625,13.689375 C0.6140625,13.5065625 0.6328125,13.1315625 0.6421875,12.864375 C0.65625,12.5690625 0.6796875,12.133125 0.675,11.926875 C2.7609375,12.0346875 5.015625,12.151875 6.684375,12.226875 L6.80625,9.564375 C4.790625,9.470625 2.6015625,9.3721875 0.91875,9.3346875 C0.9515625,8.9596875 0.9890625,8.045625 1.0078125,7.6659375 C2.6625,7.77375 4.8890625,7.876875 6.88125,7.9659375 L7.0078125,5.26125 C5.3390625,5.18625 3.009375,5.0925 0.9890625,5.0128125 C1.0125,4.7878125 1.03125,4.3659375 1.05,4.0471875 C1.059375,3.7940625 1.078125,3.4003125 1.0734375,3.1753125 L9.1640625,3.545625 C9.0609375,4.876875 8.9859375,6.5596875 8.8828125,8.805 C8.7796875,11.0315625 8.6953125,12.8128125 8.68125,14.064375 L0.590625,13.689375 Z" id="Fill-3" fill="#000000" mask="url(#mask-2)"></path>
                </g>
                <path d="M53.1304687,133.968281 C52.5023437,135.951094 52.0382812,137.554219 51.4148437,139.729219 C51.1992187,140.483906 50.9226562,141.322969 50.6695312,142.115156 L50.7351562,142.147969 C51.1992187,141.416719 51.7195312,140.662031 52.1882812,140.090156 L56.4304687,134.891719 L57.3210937,135.144844 L58.2445312,141.937031 C58.3476562,142.710469 58.4085937,143.587031 58.4460937,144.383906 L58.5304687,144.393281 C58.7460938,143.535469 58.9382813,142.640156 59.1539062,141.810469 C59.7726562,139.607344 60.1617187,138.126094 60.6867187,136.087031 L62.4867187,136.593281 C62.0320312,138.041719 61.6242187,139.513594 61.0195312,141.665156 C60.3960937,143.882344 59.9742187,145.396406 59.6273438,146.727656 L57.0445312,146.001094 C56.8710938,144.904219 56.5429687,142.288594 56.1679687,139.719844 C56.0882812,139.171406 56.0132812,138.407344 55.9617187,137.694844 L55.9101562,137.680781 C55.5070312,138.238594 55.0664062,138.815156 54.6773437,139.269844 C53.0695312,141.257344 51.4101562,143.329219 50.6648437,144.215156 L48.2882812,143.544844 C48.7007812,142.232344 49.1367187,140.722969 49.7601562,138.505781 C50.3601562,136.354219 50.7632812,134.877656 51.1148437,133.401094 L53.1304687,133.968281 Z" id="Fill-6" fill="#000000"></path>
                <path d="M39.6970313,132.015938 C39.4860938,133.215937 39.2564063,134.4675 39.0876563,135.49875 C38.9423438,136.544062 38.8110938,137.256563 38.7220313,137.772188 C39.1110938,137.406563 39.6314063,136.92375 40.4751563,136.187813 C41.2392188,135.503437 42.1532812,134.655 43.0439063,133.862812 C42.4720313,133.53 41.8439063,133.187813 41.4032813,132.939375 C40.9345312,132.681563 40.2923438,132.33 39.6970313,132.015938 L39.6970313,132.015938 Z M40.4985937,127.914375 C40.3907813,128.3175 40.1939062,129.255 39.9829687,130.422188 C40.7470312,130.844063 41.5345313,131.28 42.1345312,131.612812 C42.6782812,131.912813 43.5032812,132.3675 44.2532812,132.78 C45.0923437,132.01125 45.7860937,131.364375 46.1376562,131.026875 L48.1017187,132.114375 C46.0157813,133.77375 40.7470312,138.372187 39.5610938,139.43625 L36.8048438,137.9175 C37.0485938,136.28625 38.0985938,129.559687 38.3845313,126.747187 L40.4985937,127.914375 Z" id="Fill-8" fill="#000000"></path>
                <path d="M21.7298438,126.506719 C22.5126562,125.639531 23.7642188,124.261406 25.2407812,122.578594 C26.7735938,120.830156 27.8142187,119.644219 28.7142188,118.580156 L30.3454687,120.009844 C30.0829687,121.186406 29.6610937,124.734844 29.3376562,127.542656 C29.2064062,128.348906 29.0329687,129.150469 28.8079688,129.872344 L28.8173437,129.881719 C29.3704687,129.169219 29.9048437,128.494219 30.4251563,127.880156 C32.3939063,125.616094 33.7439063,124.083281 34.2595312,123.450469 L35.7126563,124.725469 C34.7892187,125.752031 33.6923437,126.980156 32.2017187,128.672344 C30.7251563,130.359844 29.5720312,131.672344 28.7376563,132.661406 L26.8532812,131.006719 C27.0548437,130.097344 27.4532812,126.356719 27.8376562,123.675469 C27.9360937,123.009844 28.1235937,122.259844 28.3485937,121.575469 L28.3204688,121.566094 C27.8235937,122.241094 27.3267187,122.869219 26.8345313,123.431719 C25.4001563,125.062969 23.7782813,126.975469 23.1689063,127.772344 L21.7298438,126.506719 Z" id="Fill-10" fill="#000000"></path>
                <path d="M16.94625,112.480781 C14.7759375,114.088594 14.8228125,115.312031 16.0978125,117.027656 C16.53375,117.618281 16.94625,118.152656 17.3446875,118.640156 C18.2025,118.026094 19.215,117.294844 20.17125,116.582344 C21.4603125,115.626094 22.2665625,115.035469 22.8665625,114.571406 C22.4821875,113.980781 22.1634375,113.554219 21.7134375,112.940156 C20.415,111.191719 19.1821875,110.821406 16.94625,112.480781 L16.94625,112.480781 Z M14.649375,118.101094 C12.5353125,115.241719 12.6384375,113.118281 15.69,110.854219 C18.7275,108.604219 20.94,108.876094 23.1525,111.857344 L25.6040625,115.171406 C24.4134375,115.996406 23.1478125,116.933906 21.3478125,118.265156 C19.5525,119.596406 18.1415625,120.641719 17.1290625,121.447969 L14.649375,118.101094 Z" id="Fill-12" fill="#000000"></path>
                <path d="M5.13609375,101.295 C5.30953125,101.229375 5.65171875,101.07 5.89546875,100.9575 C6.16265625,100.830937 6.55640625,100.648125 6.73921875,100.549687 C7.61109375,102.452812 8.55328125,104.505937 9.26109375,106.02 L11.6798437,104.895 C10.8267188,103.0575 9.90328125,101.074687 9.14859375,99.5653125 C9.50015625,99.4153125 10.3251562,99.0309375 10.6720312,98.8715625 C11.3470312,100.385625 12.2892187,102.410625 13.1329687,104.22 L15.5892187,103.071562 C14.8860937,101.5575 13.8876562,99.448125 13.0157812,97.62 C13.2267187,97.5403125 13.6110937,97.3621875 13.9017187,97.22625 C14.1314062,97.1184375 14.4876562,96.9496875 14.6845312,96.841875 L18.1110938,104.191875 C16.8829687,104.712187 15.3548438,105.429375 13.3204687,106.37625 C11.2954687,107.323125 9.67828125,108.073125 8.56265625,108.640312 L5.13609375,101.295 Z" id="Fill-14" fill="#000000"></path>
                <path d="M5.495625,80.1234375 C2.8190625,80.465625 2.2659375,81.5578125 2.5378125,83.6765625 C2.626875,84.403125 2.73,85.0734375 2.8378125,85.696875 C3.883125,85.575 5.1253125,85.4296875 6.31125,85.2796875 C7.905,85.0734375 8.8940625,84.946875 9.6440625,84.8390625 C9.5971875,84.1359375 9.526875,83.60625 9.433125,82.8515625 C9.1565625,80.690625 8.2565625,79.771875 5.495625,80.1234375 L5.495625,80.1234375 Z M0.751875,83.90625 C0.2971875,80.38125 1.426875,78.5765625 5.195625,78.09375 C8.945625,77.6109375 10.745625,78.928125 11.214375,82.6078125 L11.739375,86.6953125 C10.295625,86.8359375 8.7346875,87.0375 6.5175,87.3234375 C4.3003125,87.6046875 2.5565625,87.8296875 1.2815625,88.0359375 L0.751875,83.90625 Z" id="Fill-16" fill="#000000"></path>
                <path d="M0.5765625,64.4657813 C0.759375,64.4939063 1.1390625,64.5220313 1.4015625,64.5407812 C1.696875,64.5595313 2.1328125,64.5923438 2.34375,64.5923438 C2.1796875,66.6782813 2.00625,68.9376563 1.884375,70.6064062 L4.5515625,70.7939063 C4.6921875,68.7735938 4.8515625,66.5892188 4.9265625,64.9017188 C5.30625,64.9439063 6.215625,65.0095313 6.5953125,65.0376563 C6.45,66.6876563 6.290625,68.9189062 6.1453125,70.9110938 L8.8546875,71.1032813 C8.971875,69.4345312 9.1265625,67.1048438 9.2578125,65.0845313 C9.478125,65.1173438 9.9,65.1454688 10.2234375,65.1689062 C10.471875,65.1876563 10.865625,65.2157813 11.090625,65.2157813 L10.5140625,73.3064062 C9.1828125,73.1657812 7.5046875,73.0485937 5.259375,72.8892187 C3.028125,72.7298438 1.2515625,72.6032813 0,72.5564062 L0.5765625,64.4657813 Z" id="Fill-18" fill="#000000"></path>
                <path d="M13.1470312,47.7735937 C12.3501562,47.4642188 11.6564062,47.7689062 10.5220312,49.8407812 C9.00796875,52.5829687 7.68609375,53.1126563 6.06421875,52.4798438 C4.40484375,51.8376563 3.81421875,50.0892188 4.85484375,47.4032812 C6.00796875,44.4454687 7.51265625,43.7048438 9.22828125,44.3704688 C9.44859375,44.4548438 9.61734375,44.5392187 9.84234375,44.6610937 C9.74859375,44.8673437 9.61265625,45.1860937 9.48140625,45.5142187 C9.35015625,45.8517187 9.22828125,46.2126563 9.15796875,46.4048437 C9.02203125,46.3392187 8.84859375,46.2735937 8.74546875,46.2314062 C7.87828125,45.8985938 7.10953125,46.2595312 6.40640625,48.0642188 C5.84390625,49.5220313 6.02671875,50.2860938 6.79078125,50.5767187 C7.42828125,50.8251562 8.10796875,50.7126562 9.30796875,48.5470312 C10.7751563,45.9360937 12.0454687,45.2517187 13.7985937,45.9314062 C15.5798437,46.6251562 16.2032812,48.3595312 15.1204687,51.1439063 C13.9392187,54.1954688 12.4064062,55.0767188 10.5735938,54.3642187 C10.3673437,54.2845313 10.1704687,54.2095313 9.95484375,54.0970313 C10.0814063,53.8907813 10.2267187,53.5532813 10.3579687,53.2157813 C10.5079687,52.8360938 10.6251562,52.4892188 10.7189062,52.2079688 C10.8032812,52.2595313 10.8970312,52.2923437 10.9907812,52.3298438 C12.1017187,52.7564062 12.8751562,52.2782812 13.5454687,50.5485937 C14.2017187,48.8610937 13.9720312,48.0923438 13.1470312,47.7735937" id="Fill-20" fill="#000000"></path>
                <path d="M18.1504687,33.9510937 C16.1442187,32.6385937 14.5129687,32.9385937 13.4489062,34.5651562 C12.3754687,36.2057813 12.7223437,37.8182812 14.7520312,39.1448437 C16.7676562,40.4667187 18.4504687,40.1854687 19.5239062,38.5448437 C20.5973437,36.9042187 20.1567187,35.2635937 18.1504687,33.9510937 M21.0754687,39.5760937 C19.3223437,42.2526563 16.5567187,42.8245312 13.5473437,40.8510938 C10.5379687,38.8823437 10.2051562,36.1495312 11.8973437,33.5667187 C13.5942187,30.9698437 16.2379687,30.1729687 19.2473437,32.1417187 C22.2567187,34.1151562 22.8285937,36.8948437 21.0754687,39.5760937" id="Fill-22" fill="#000000"></path>
                <path d="M25.4976562,18.10125 C26.0695313,18.7434375 26.6507813,19.3528125 27.5460938,20.2621875 C28.1601562,20.885625 29.0882813,21.785625 29.8617188,22.5684375 C31.8117187,24.55125 32.0367187,26.716875 29.7023438,29.0184375 C27.3679688,31.32 25.1976563,31.07625 23.2429687,29.0934375 C22.4695312,28.310625 21.5835937,27.373125 20.9695312,26.7496875 C20.0742188,25.835625 19.4601563,25.235625 18.8367187,24.66375 L20.3789062,23.145 C21.3445312,24.204375 23.5289062,26.4590625 24.6539063,27.598125 C25.9757813,28.9434375 27.1804687,28.92 28.4414062,27.6778125 C29.6835938,26.454375 29.6695312,25.30125 28.3476562,23.960625 C27.2226562,22.816875 24.9914063,20.595 23.9742187,19.60125 L25.4976562,18.10125 Z" id="Fill-24" fill="#000000"></path>
                <path d="M44.8607812,17.6709375 C43.8529687,15.8428125 43.0045312,14.3990625 41.8514062,12.444375 C41.4482812,11.769375 41.0310937,10.9865625 40.6279687,10.2553125 L40.5623437,10.2834375 C40.7685938,11.1271875 40.9607812,12.0271875 41.0545312,12.7584375 L41.9123437,19.4334375 L41.1154687,19.9115625 L35.5326562,15.894375 C34.8998437,15.4396875 34.2154687,14.8771875 33.6107812,14.3521875 L33.5451562,14.4084375 C34.0232812,15.1584375 34.5435937,15.913125 34.9935937,16.644375 C36.1701562,18.613125 36.9810937,19.91625 38.1060937,21.706875 L36.4935937,22.6678125 C35.7529687,21.34125 34.9654687,20.0240625 33.8170312,18.1021875 C32.6310937,16.119375 31.8201562,14.7646875 31.0889062,13.5975 L33.3998437,12.2146875 C34.3185937,12.8475 36.4514062,14.413125 38.5795312,15.913125 C39.0295312,16.231875 39.6389062,16.7053125 40.1920312,17.1646875 L40.2435938,17.131875 C40.1123437,16.456875 39.9951562,15.735 39.9342187,15.135 C39.5967188,12.594375 39.2357813,9.96 39.1045312,8.806875 L41.2326562,7.5365625 C41.9029687,8.74125 42.6998437,10.100625 43.8857812,12.0834375 C45.0342188,14.0053125 45.8357812,15.3178125 46.6607812,16.5928125 L44.8607812,17.6709375 Z" id="Fill-26" fill="#000000"></path>
                <path d="M50.9653125,15.0525 C50.4778125,13.618125 49.9528125,12.1978125 49.179375,10.1025 C48.40125,7.9978125 47.87625,6.5728125 47.3184375,5.1853125 L49.3153125,4.44 C49.7934375,5.8509375 50.3184375,7.27125 51.0965625,9.380625 C51.87,11.47125 52.395,12.89625 52.966875,14.311875 L50.9653125,15.0525 Z" id="Fill-28" fill="#000000"></path>
                <path d="M63.425625,8.65546875 C63.256875,7.81171875 62.6240625,7.39453125 60.256875,7.55859375 C57.125625,7.76015625 55.963125,6.93046875 55.61625,5.21953125 C55.2646875,3.46640625 56.4225,2.02265625 59.25375,1.45078125 C62.375625,0.82265625 63.8146875,1.69453125 64.1803125,3.50390625 C64.2271875,3.73828125 64.250625,3.92109375 64.288125,4.17421875 C64.063125,4.20703125 63.71625,4.26328125 63.369375,4.33359375 C63.013125,4.40390625 62.6428125,4.49296875 62.4225,4.54921875 C62.4084375,4.39453125 62.3709375,4.21171875 62.3475,4.10390625 C62.1646875,3.18984375 61.438125,2.73515625 59.535,3.11953125 C58.0021875,3.42890625 57.4584375,4.00078125 57.6178125,4.80234375 C57.75375,5.47734375 58.2178125,5.98828125 60.6975,5.82890625 C63.6975,5.65546875 64.9584375,6.36328125 65.3334375,8.21484375 C65.713125,10.0898437 64.588125,11.5523437 61.644375,12.1476562 C58.42875,12.7992187 56.8584375,11.9789062 56.4646875,10.0476562 C56.4225,9.82734375 56.3803125,9.62109375 56.3615625,9.37734375 C56.600625,9.37265625 56.96625,9.31640625 57.3225,9.24140625 C57.725625,9.16171875 58.0771875,9.07265625 58.3678125,9.00234375 C58.3725,9.10078125 58.39125,9.19921875 58.41,9.29765625 C58.6490625,10.4695312 59.4740625,10.8632812 61.2975,10.4929687 C63.07875,10.1320312 63.60375,9.52734375 63.425625,8.65546875" id="Fill-30" fill="#000000"></path>
                <path d="M76.6617188,7.9321875 C76.6757812,7.074375 76.1507812,6.530625 73.8023438,6.18375 C70.6945313,5.715 69.7335938,4.655625 69.7617188,2.9071875 C69.7898438,1.1165625 71.2289063,-0.04125 74.1210938,0.0009375 C77.3039063,0.0478125 78.5273438,1.2103125 78.4992187,3.0525 C78.4945312,3.29625 78.4804688,3.4790625 78.4617188,3.7321875 C78.2320313,3.7134375 77.8851562,3.6946875 77.5335938,3.69 C77.1632812,3.680625 76.7835938,3.69 76.5585938,3.7040625 C76.5726563,3.5446875 76.5773437,3.361875 76.5773437,3.249375 C76.5914063,2.32125 75.9820313,1.72125 74.0367188,1.6884375 C72.4710938,1.6696875 71.8195313,2.1103125 71.8054688,2.9259375 C71.7960938,3.615 72.1382813,4.215 74.5992188,4.59 C77.5664063,5.05875 78.6492188,6.0196875 78.6210938,7.90875 C78.5929687,9.82125 77.1773438,11.011875 74.1773438,10.965 C70.8960938,10.918125 69.5320313,9.78375 69.5601563,7.8103125 C69.5648438,7.5853125 69.5695313,7.374375 69.6023438,7.1353125 C69.8367188,7.1775 70.2070313,7.2009375 70.5726563,7.205625 C70.9804688,7.2103125 71.3460938,7.2009375 71.6414063,7.1915625 C71.6273438,7.29 71.6273438,7.3884375 71.6226563,7.486875 C71.6039063,8.686875 72.3304688,9.249375 74.1914063,9.2775 C76.0054688,9.3009375 76.6523438,8.818125 76.6617188,7.9321875" id="Fill-32" fill="#000000"></path>
                <path d="M82.6879687,11.3629687 C82.9598437,9.87234375 83.1942188,8.37234375 83.5364062,6.16453125 C83.8785938,3.94265625 84.1082813,2.44734375 84.2957812,0.95671875 L86.4051562,1.28484375 C86.1379687,2.74734375 85.9082813,4.24265625 85.5614062,6.46453125 C85.2239062,8.67234375 84.9895312,10.1723437 84.7973437,11.6864062 L82.6879687,11.3629687 Z" id="Fill-34" fill="#000000"></path>
                <path d="M98.4534375,9.89109375 C99.208125,7.61765625 98.5003125,6.12234375 96.6534375,5.50828125 C94.7971875,4.89421875 93.33,5.63953125 92.5659375,7.94109375 C91.81125,10.2285937 92.5096875,11.7801562 94.370625,12.3989062 C96.226875,13.0176563 97.69875,12.1645312 98.4534375,9.89109375 M93.770625,14.1614063 C90.7378125,13.1535938 89.476875,10.6270312 90.61125,7.21921875 C91.7409375,3.80671875 94.2909375,2.78015625 97.220625,3.75046875 C100.164375,4.72546875 101.612813,7.07859375 100.483125,10.4910937 C99.34875,13.8989062 96.808125,15.1645312 93.770625,14.1614063" id="Fill-36" fill="#000000"></path>
                <path d="M115.656094,12.97875 C115.046719,13.9725 114.067031,15.556875 112.918594,17.4740625 C111.727969,19.4709375 110.917031,20.825625 110.227969,22.035 L108.367031,20.9240625 C108.413906,19.719375 108.179531,16.1521875 107.996719,13.335 C107.973281,12.519375 108.006094,11.70375 108.090469,10.9490625 L108.081094,10.9396875 C107.663906,11.7459375 107.260781,12.5053125 106.862344,13.1990625 C105.334219,15.781875 104.288906,17.535 103.895156,18.2521875 L102.235781,17.263125 C102.957656,16.0865625 103.815469,14.675625 104.968594,12.744375 C106.117031,10.8225 107.012344,9.3225 107.654531,8.1928125 L109.806094,9.481875 C109.773281,10.4146875 110.059219,14.16 110.167031,16.8646875 C110.190469,17.5396875 110.138906,18.3084375 110.045156,19.025625 L110.073281,19.025625 C110.438906,18.275625 110.813906,17.5678125 111.198281,16.925625 C112.309219,15.0646875 113.560781,12.8896875 114.010781,11.994375 L115.656094,12.97875 Z" id="Fill-38" fill="#000000"></path>
                <path d="M128.198906,30.0192187 C129.459844,28.9129687 129.361406,27.7973437 128.208281,26.4848437 C126.998906,25.1114062 125.564531,24.8864063 123.628594,26.5879688 C121.650469,28.3270312 121.608281,29.9020313 122.831719,31.2989062 C124.031719,32.6629687 125.222344,32.6723437 126.300469,31.7254687 L126.511406,31.5473437 C126.736406,31.8192187 126.937969,32.0535937 127.172344,32.3160937 C127.392656,32.5692187 127.627031,32.8364062 127.870781,33.0848437 L127.561406,33.3520312 C125.700469,34.9879687 123.483281,34.8567187 121.444219,32.5364062 C119.381719,30.1879688 119.353594,27.5114062 122.180156,25.0270312 C124.777031,22.7489063 127.444219,22.8426563 129.637969,25.3410937 C131.770781,27.7645312 131.437969,29.8879688 129.787969,31.3410937 C129.642656,31.4723437 129.502031,31.5895313 129.337969,31.7301562 C129.122344,31.4676562 128.887969,31.2004687 128.667656,30.9473437 C128.433281,30.6848437 128.231719,30.4504687 127.997344,30.1973437 L128.198906,30.0192187 Z" id="Fill-40" fill="#000000"></path>
                <path d="M135.340312,43.3242188 C137.430937,42.1570313 137.918437,40.5773438 136.971562,38.8804687 C136.02,37.1695313 134.435625,36.7289063 132.316875,37.9101562 C130.216875,39.0867188 129.6825,40.7039062 130.63875,42.4148438 C131.590312,44.1257813 133.249687,44.4914062 135.340312,43.3242188 M129.0075,43.3101563 C127.446562,40.5164062 128.224687,37.8070313 131.365312,36.0539063 C134.50125,34.3054688 137.074687,35.2710937 138.574687,37.9664062 C140.08875,40.6757812 139.568437,43.3851563 136.4325,45.1335937 C133.291875,46.8867188 130.56375,46.0992187 129.0075,43.3101563" id="Fill-42" fill="#000000"></path>
                <path d="M135.939844,60.744375 C137.960156,60.2521875 139.572656,59.8115625 141.752344,59.21625 C142.507031,59.0053125 143.369531,58.80375 144.175781,58.606875 L144.171094,58.5365625 C143.303906,58.5178125 142.385156,58.4709375 141.658594,58.3678125 L135.016406,57.444375 L134.763281,56.55375 L140.083594,52.231875 C140.692969,51.744375 141.410156,51.2334375 142.071094,50.7834375 L142.033594,50.7084375 C141.189844,50.975625 140.327344,51.275625 139.507031,51.519375 C137.303906,52.138125 135.836719,52.57875 133.821094,53.188125 L133.314844,51.388125 C134.786719,51.0225 136.258594,50.6053125 138.410156,50.0053125 C140.627344,49.381875 142.141406,48.96 143.458594,48.5615625 L144.180469,51.144375 C143.336719,51.8615625 141.274219,53.506875 139.272656,55.156875 C138.846094,55.513125 138.232031,55.9725 137.646094,56.385 L137.664844,56.44125 C138.349219,56.4975 139.071094,56.5725 139.666406,56.66625 C142.197656,57.0084375 144.827344,57.3459375 145.971094,57.5240625 L146.641406,59.900625 C145.305469,60.2334375 143.786719,60.6459375 141.569531,61.2646875 C139.417969,61.869375 137.950781,62.2959375 136.507031,62.76 L135.939844,60.744375 Z" id="Fill-44" fill="#000000"></path>
                <path d="M137.237344,76.9603125 C139.323281,76.9978125 141.001406,76.9884375 143.270156,76.965 C144.057656,76.955625 144.948281,76.98375 145.777969,76.9978125 L145.792031,76.9275 C144.957656,76.6884375 144.076406,76.4071875 143.396719,76.12125 L137.185781,73.524375 L137.171719,72.5915625 L143.443594,69.765 C144.156094,69.4415625 144.981094,69.1321875 145.740469,68.8696875 L145.726406,68.7853125 C144.835781,68.8275 143.921719,68.8978125 143.063906,68.9259375 C140.767031,68.95875 139.229531,69.0103125 137.120156,69.0853125 L137.087344,67.2103125 C138.610781,67.2290625 140.148281,67.205625 142.388906,67.1728125 C144.699844,67.1353125 146.274844,67.111875 147.657656,67.065 L147.695156,69.755625 C146.692031,70.23375 144.268594,71.2978125 141.906094,72.3946875 C141.399844,72.6290625 140.682656,72.9196875 140.012344,73.168125 L140.012344,73.224375 C140.663906,73.4540625 141.343594,73.711875 141.901406,73.955625 C144.268594,74.9353125 146.734219,75.943125 147.798281,76.4071875 L147.835781,78.886875 C146.452969,78.8634375 144.877969,78.8728125 142.567031,78.9103125 C140.326406,78.943125 138.788906,78.980625 137.270156,79.0603125 L137.237344,76.9603125 Z" id="Fill-46" fill="#000000"></path>
                <path d="M145.221094,93.6642188 C145.042969,93.6126563 144.672656,93.5329688 144.414844,93.4767188 C144.124219,93.4157812 143.697656,93.3267188 143.491406,93.2939063 C143.941406,91.2501563 144.428906,89.0423438 144.775781,87.4110938 L142.164844,86.8532813 C141.742969,88.8314063 141.288281,90.9735938 140.974219,92.6282813 C140.608594,92.5345313 139.713281,92.3470313 139.342969,92.2673438 C139.717969,90.6501562 140.182031,88.4704687 140.599219,86.5204688 L137.950781,85.9485938 C137.603906,87.5845312 137.125781,89.8673438 136.722656,91.8501562 C136.502344,91.7892188 136.089844,91.7001563 135.775781,91.6298438 C135.527344,91.5782813 135.142969,91.4985937 134.922656,91.4657813 L136.614844,83.5392188 C137.908594,83.8626563 139.558594,84.2095313 141.752344,84.6782812 C143.936719,85.1470312 145.680469,85.5220312 146.913281,85.7423438 L145.221094,93.6642188 Z" id="Fill-48" fill="#000000"></path>
                <path d="M136.411406,102.17625 C135.853594,103.437187 136.205156,104.346562 137.231719,104.805937 C138.520781,105.377812 139.191094,104.909062 139.847344,103.427812 C140.048906,102.973125 140.550469,101.810625 140.827031,101.116875 C139.725469,100.624687 138.623906,100.123125 137.573906,99.6684375 C137.358281,100.11375 136.903594,101.102812 136.411406,102.17625 L136.411406,102.17625 Z M134.873906,103.202812 C134.133281,104.430937 133.575469,104.7075 132.019219,104.571562 C131.011406,104.477812 130.167656,104.398125 129.694219,104.384062 L130.500469,102.57 C130.655156,102.223125 130.791094,102.237187 131.742656,102.3825 C133.983281,102.6825 134.508281,102.640312 135.042656,101.445 C135.403594,100.629375 135.595781,100.160625 136.102031,99.0309375 C134.728594,98.435625 133.528594,97.948125 132.689531,97.6528125 L133.575469,95.6559375 C134.972344,96.2934375 136.322344,96.92625 138.384844,97.8403125 C140.433281,98.7496875 141.830156,99.354375 143.231719,99.9496875 L141.211406,104.491875 C140.203594,106.760625 138.666094,107.646562 136.683281,106.765312 C135.089531,106.0575 134.480156,104.955937 134.930156,103.22625 L134.873906,103.202812 Z" id="Fill-50" fill="#000000"></path>
                <path d="M129.077812,116.985 C130.441875,117.96 131.505938,117.617812 132.523125,116.1975 C133.591875,114.711562 133.484062,113.263125 131.393438,111.758437 C129.25125,110.220937 127.709062,110.535 126.621562,112.044375 C125.562187,113.520937 125.82,114.67875 126.987187,115.517812 L127.216875,115.667812 C127.00125,115.944375 126.818438,116.1975 126.616875,116.483437 C126.415312,116.755312 126.21375,117.04125 126.016875,117.355312 L125.684062,117.11625 C123.673125,115.667812 123.302813,113.474062 125.102812,110.970937 C126.930937,108.430312 129.5325,107.802187 132.58875,109.995937 C135.391875,112.011562 135.902813,114.636562 133.962187,117.336562 C132.077812,119.956875 129.930937,120.11625 128.145,118.831875 C127.985625,118.719375 127.835625,118.611562 127.67625,118.456875 C127.8825,118.189687 128.08875,117.908437 128.285625,117.631875 C128.491875,117.345937 128.674688,117.092812 128.862188,116.825625 L129.077812,116.985 Z" id="Fill-52" fill="#000000"></path>
                <path d="M119.616094,117.843281 C120.670781,118.940156 121.748906,120.004219 123.342656,121.574531 C124.945781,123.154219 126.023906,124.218281 127.125469,125.244844 L125.625469,126.768281 C124.594219,125.690156 123.511406,124.626094 121.908281,123.046406 C120.319219,121.476094 119.236406,120.412031 118.116094,119.366719 L119.616094,117.843281 Z" id="Fill-54" fill="#000000"></path>
                <path d="M112.080937,129.470625 C113.079375,130.169063 114.124687,130.909688 114.987188,131.500313 C115.877812,132.072188 116.46375,132.494063 116.890312,132.789375 C116.72625,132.283125 116.510625,131.608125 116.196562,130.53 C115.896563,129.545625 115.516875,128.355 115.174688,127.215938 C114.630938,127.595625 114.049688,128.0175 113.641875,128.312813 C113.210625,128.631563 112.615313,129.062813 112.080937,129.470625 L112.080937,129.470625 Z M108.696562,127.009688 C109.015312,127.281563 109.784063,127.853438 110.754375,128.537813 C111.462187,128.022188 112.18875,127.4925 112.746562,127.084688 C113.248125,126.72375 114.0075,126.165938 114.70125,125.659688 C114.359062,124.5675 114.06375,123.6675 113.904375,123.208125 L115.723125,121.881563 C116.346563,124.478438 118.296563,131.209688 118.765312,132.733125 L116.215313,134.589375 C114.837187,133.68 109.174687,129.883125 106.741875,128.434688 L108.696562,127.009688 Z" id="Fill-56" fill="#000000"></path>
                <path d="M106.475625,140.315156 C106.156875,139.551094 105.327187,137.765156 104.2725,135.562031 C103.742813,134.460469 103.152187,133.265156 102.763125,132.454219 C101.595937,133.012031 99.988125,133.785469 98.6896875,134.455781 C98.5584375,134.174531 98.431875,133.879219 98.2959375,133.602656 C98.16,133.307344 98.01,133.035469 97.87875,132.758906 L103.850625,129.890156 C104.235,130.687031 105.120937,132.627656 106.09125,134.652656 C107.206875,136.972969 107.942813,138.505781 108.411563,139.382344 L106.475625,140.315156 Z" id="Fill-58" fill="#000000"></path>
            </g>
        </g>
    </g>
</svg>