<?xml version="1.0" encoding="UTF-8"?>
<svg width="25px" height="27px" viewBox="0 0 25 27" version="1.1" xmlns="http://www.w3.org/2000/svg" xmlns:xlink="http://www.w3.org/1999/xlink">
    <title>2A080EB4-90F0-4EF2-B0B9-4DF1A36D6C3E</title>
    <g id="Wireframes" stroke="none" stroke-width="1" fill="none" fill-rule="evenodd">
        <g id="COMMERCIAL" transform="translate(-469.000000, -5842.000000)" fill="#000000" fill-rule="nonzero" stroke="#000000">
            <g id="Group-18" transform="translate(98.000000, 5812.000000)">
                <g id="Group" transform="translate(2.500000, 25.500000)">
                    <g id="download" transform="translate(370.000000, 6.000000)">
                        <path d="M21.6393443,15.7078033 C21.4220656,15.7078033 21.2459016,15.8839672 21.2459016,16.1012459 L21.2459016,23.2131148 L0.786885246,23.2131148 L0.786885246,16.1012459 C0.786885246,15.8839672 0.610721311,15.7078033 0.393442623,15.7078033 C0.176163934,15.7078033 0,15.8839672 0,16.1012459 L0,23.6065574 C0,23.8238361 0.176163934,24 0.393442623,24 L21.6393443,24 C21.856623,24 22.0327869,23.8238361 22.0327869,23.6065574 L22.0327869,16.1012459 C22.0327869,15.8839672 21.856623,15.7078033 21.6393443,15.7078033 Z" id="Path"></path>
                        <path d="M10.7382295,19.9502951 C10.8916721,20.1041311 11.1408197,20.1044754 11.2946557,19.9509836 C11.2949016,19.9507377 11.2951475,19.9504918 11.2953443,19.9502951 L16.4100984,14.835541 C16.561082,14.6792459 16.5567541,14.4301967 16.400459,14.2792131 C16.248,14.131918 16.0062295,14.131918 15.8537705,14.2792131 L11.4098361,18.7223607 L11.4098361,0.393442623 C11.4098361,0.176163934 11.2336721,0 11.0163934,0 C10.7991148,0 10.6229508,0.176163934 10.6229508,0.393442623 L10.6229508,18.7223607 L6.17980328,14.2792131 C6.0235082,14.1282295 5.77445902,14.1325574 5.62347541,14.2888525 C5.47622951,14.4413115 5.47622951,14.6830328 5.62347541,14.835541 L10.7382295,19.9502951 Z" id="Path"></path>
                    </g>
                </g>
            </g>
        </g>
    </g>
</svg>