<?xml version="1.0" encoding="UTF-8"?>
<svg width="24px" height="24px" viewBox="0 0 24 24" version="1.1" xmlns="http://www.w3.org/2000/svg" xmlns:xlink="http://www.w3.org/1999/xlink">
    <title>google-plus-social-logotype</title>
    <g id="Wireframes" stroke="none" stroke-width="1" fill="none" fill-rule="evenodd">
        <g id="Press-post" transform="translate(-287.000000, -1640.000000)" fill="#000000" fill-rule="nonzero">
            <g id="google-plus-social-logotype" transform="translate(287.000000, 1640.000000)">
                <path d="M12.6088421,13.6550103 L11.4636632,12.7835876 C11.1150316,12.5005361 10.6375579,12.126433 10.6375579,11.4420619 C10.6375579,10.7547216 11.1147789,10.3177732 11.5285895,9.91298969 C12.8622316,8.88445361 14.1956211,7.78985567 14.1956211,5.48338144 C14.1956211,3.11158763 12.672,1.86383505 11.9413895,1.27175258 L13.9106526,1.27175258 L15.9774316,0 L9.71595789,0 C7.99781053,0 5.52151579,0.39785567 3.70863158,1.86383505 C2.3424,3.01830928 1.67595789,4.60997938 1.67595789,6.04329897 C1.67595789,8.47571134 3.58282105,10.9417732 6.95090526,10.9417732 C7.26896842,10.9417732 7.61684211,10.9110928 7.96698947,10.8794227 C7.8096,11.254268 7.65069474,11.5665155 7.65069474,12.096 C7.65069474,13.0621856 8.15747368,13.6545155 8.60412632,14.2156701 C7.17347368,14.3121649 4.50214737,14.4675464 2.53263158,15.6529485 C0.657094737,16.7453196 0.0861473684,18.3350103 0.0861473684,19.457567 C0.0861473684,21.7670103 2.30930526,23.9181031 6.91856842,23.9181031 C12.3845053,23.9181031 15.2778947,20.9562062 15.2778947,18.0237526 C15.2784,15.8694433 14.0076632,14.8092371 12.6088421,13.6550103 Z M8.44572632,10.0678763 C5.71124211,10.0678763 4.47258947,6.60593814 4.47258947,4.51719588 C4.47258947,3.7036701 4.62997895,2.86391753 5.17061053,2.208 C5.68067368,1.58350515 6.56842105,1.1782268 7.39730526,1.1782268 C10.0332632,1.1782268 11.4005053,4.67134021 11.4005053,6.91769072 C11.4005053,7.47958763 11.3370947,8.47546392 10.6062316,9.19571134 C10.0951579,9.69575258 9.23974737,10.0678763 8.44572632,10.0678763 Z M8.47705263,22.6112165 C5.07663158,22.6112165 2.88404211,21.0183093 2.88404211,18.8028866 C2.88404211,16.588701 4.91722105,15.8392577 5.61650526,15.5915876 C6.95065263,15.1519175 8.66728421,15.0908041 8.95376842,15.0908041 C9.27157895,15.0908041 9.43048421,15.0908041 9.68362105,15.1219794 C12.1008,16.8069278 13.1499789,17.646433 13.1499789,19.241567 C13.1502316,21.172701 11.5288421,22.6112165 8.47705263,22.6112165 Z" id="Shape"></path>
                <polygon id="Path" points="20.6346947 10.0203711 20.6346947 6.90160825 19.0623158 6.90160825 19.0623158 10.0203711 15.8826947 10.0203711 15.8826947 11.5776495 19.0623158 11.5776495 19.0623158 14.7159588 20.6346947 14.7159588 20.6346947 11.5776495 23.8302316 11.5776495 23.8302316 10.0203711"></polygon>
            </g>
        </g>
    </g>
</svg>