<?xml version="1.0" encoding="UTF-8"?>
<svg width="24px" height="24px" viewBox="0 0 24 24" version="1.1" xmlns="http://www.w3.org/2000/svg" xmlns:xlink="http://www.w3.org/1999/xlink">
    <title>linkedin-logo</title>
    <g id="Wireframes" stroke="none" stroke-width="1" fill="none" fill-rule="evenodd">
        <g id="Press-post" transform="translate(-193.000000, -1640.000000)" fill="#000000" fill-rule="nonzero">
            <g id="linkedin-logo" transform="translate(193.000000, 1640.000000)">
                <path d="M2.85574468,0.0206451613 C1.27761702,0.0206451613 0.000255319149,1.31406452 0,2.90554839 C0,4.49858065 1.2773617,5.79174194 2.856,5.79174194 C4.43029787,5.79174194 5.70944681,4.49858065 5.70944681,2.90554839 C5.70944681,1.31380645 4.43004255,0.0206451613 2.85574468,0.0206451613 Z" id="Path"></path>
                <rect id="Rectangle" x="0.392680851" y="7.98090323" width="4.92434043" height="16.0139355"></rect>
                <path d="M17.8531915,7.58270968 C15.4577872,7.58270968 13.8515745,8.91019355 13.1941277,10.1690323 L13.1282553,10.1690323 L13.1282553,7.98090323 L8.4053617,7.98090323 L8.40510638,7.98090323 L8.40510638,23.9945806 L13.3251064,23.9945806 L13.3251064,16.0725161 C13.3251064,13.984 13.7185532,11.9610323 16.2804255,11.9610323 C18.8055319,11.9610323 18.839234,14.3496774 18.839234,16.2064516 L18.839234,23.9943226 L23.76,23.9943226 L23.76,15.2108387 C23.76,10.8993548 22.8395745,7.58270968 17.8531915,7.58270968 Z" id="Path"></path>
            </g>
        </g>
    </g>
</svg>