<?xml version="1.0" encoding="UTF-8"?>
<svg width="39px" height="29px" viewBox="0 0 39 29" version="1.1" xmlns="http://www.w3.org/2000/svg" xmlns:xlink="http://www.w3.org/1999/xlink">
    <title>04520FEB-E38D-4B2B-95EA-61C2A6F59578</title>
    <g id="Wireframes" stroke="none" stroke-width="1" fill="none" fill-rule="evenodd">
        <g id="SERVICES-&amp;-RENOVATION" transform="translate(-365.000000, -7789.000000)" fill="#E1E1E1" fill-rule="nonzero">
            <g id="Group-6" transform="translate(365.000000, 7789.000000)">
                <path d="M30.3837209,29 C35.372093,29 39,25.375 39,20.5416667 C39,15.859375 35.372093,12.8385417 31.4418605,12.234375 C32.6511628,8.609375 34.6162791,4.984375 37.1860465,1.359375 L34.7674419,0 C26.6046512,8.76041667 22.2209302,15.40625 22.2209302,20.5416667 C22.2209302,25.5260417 25.8488372,29 30.3837209,29 Z M8.1627907,29 C13.1511628,29 16.7790698,25.375 16.7790698,20.5416667 C16.7790698,15.859375 13.1511628,12.8385417 9.22093023,12.234375 C10.4302326,8.609375 12.3953488,4.984375 14.9651163,1.359375 L12.5465116,0 C4.38372093,8.76041667 0,15.40625 0,20.5416667 C0,25.5260417 3.62790698,29 8.1627907,29 Z" id="“"></path>
            </g>
        </g>
    </g>
</svg>