<?xml version="1.0" encoding="UTF-8"?>
<svg width="39px" height="29px" viewBox="0 0 39 29" version="1.1" xmlns="http://www.w3.org/2000/svg" xmlns:xlink="http://www.w3.org/1999/xlink">
    <title>84E81772-2A13-418A-B6B7-33D2514B0676</title>
    <g id="Wireframes" stroke="none" stroke-width="1" fill="none" fill-rule="evenodd">
        <g id="SERVICES-&amp;-RENOVATION" transform="translate(-1037.000000, -7938.000000)" fill="#E1E1E1" fill-rule="nonzero">
            <g id="Group-6" transform="translate(365.000000, 7789.000000)">
                <path d="M702.383721,178 C707.372093,178 711,174.375 711,169.541667 C711,164.859375 707.372093,161.838542 703.44186,161.234375 C704.651163,157.609375 706.616279,153.984375 709.186047,150.359375 L706.767442,149 C698.604651,157.760417 694.22093,164.40625 694.22093,169.541667 C694.22093,174.526042 697.848837,178 702.383721,178 Z M680.162791,178 C685.151163,178 688.77907,174.375 688.77907,169.541667 C688.77907,164.859375 685.151163,161.838542 681.22093,161.234375 C682.430233,157.609375 684.395349,153.984375 686.965116,150.359375 L684.546512,149 C676.383721,157.760417 672,164.40625 672,169.541667 C672,174.526042 675.627907,178 680.162791,178 Z" id="“" transform="translate(691.500000, 163.500000) scale(-1, 1) translate(-691.500000, -163.500000) "></path>
            </g>
        </g>
    </g>
</svg>