<?xml version="1.0" encoding="UTF-8"?>
<svg width="19px" height="24px" viewBox="0 0 19 24" version="1.1" xmlns="http://www.w3.org/2000/svg" xmlns:xlink="http://www.w3.org/1999/xlink">
    <title>pinterest-social-logo</title>
    <g id="Wireframes" stroke="none" stroke-width="1" fill="none" fill-rule="evenodd">
        <g id="Press-post" transform="translate(-243.000000, -1640.000000)" fill="#000000" fill-rule="nonzero">
            <g id="pinterest-social-logo" transform="translate(243.000000, 1640.000000)">
                <path d="M10.03125,0 C3.36725,0 0.00725,4.68 0.00725,8.58293878 C0.00725,10.9459592 0.9205,13.0479184 2.879,13.8315918 C3.2005,13.9601633 3.4885,13.8362449 3.582,13.488 C3.6465,13.2467755 3.79975,12.6386939 3.868,12.3852245 C3.962,12.0406531 3.92525,11.9199184 3.66625,11.6196735 C3.1015,10.9670204 2.7405,10.1221224 2.7405,8.92530612 C2.7405,5.45314286 5.3925,2.34489796 9.6465,2.34489796 C13.4125,2.34489796 15.482,4.59942857 15.482,7.61020408 C15.482,11.5716735 13.69225,14.9150204 11.0355,14.9150204 C9.568,14.9150204 8.47,13.7262857 8.822,12.2684082 C9.2435,10.5279184 10.05975,8.64930612 10.05975,7.39322449 C10.05975,6.26865306 9.444,5.33044898 8.1685,5.33044898 C6.6685,5.33044898 5.46375,6.85053061 5.46375,8.88661224 C5.46375,10.1835918 5.911,11.0608163 5.911,11.0608163 C5.911,11.0608163 4.37575,17.4318367 4.10725,18.5475918 C3.571,20.7693061 4.02675,23.4933061 4.06525,23.7683265 C4.0875,23.9314286 4.30125,23.9701224 4.39825,23.8471837 C4.537,23.6701224 6.32325,21.5098776 6.9305,19.351102 C7.10225,18.7398367 7.9165,15.5747755 7.9165,15.5747755 C8.404,16.4850612 9.82825,17.287102 11.343,17.287102 C15.8515,17.287102 18.91075,13.2607347 18.91075,7.87077551 C18.911,3.79542857 15.38675,0 10.03125,0 Z" id="Path"></path>
            </g>
        </g>
    </g>
</svg>