<?xml version="1.0" encoding="UTF-8"?>
<svg width="151px" height="151px" viewBox="0 0 151 151" version="1.1" xmlns="http://www.w3.org/2000/svg" xmlns:xlink="http://www.w3.org/1999/xlink">
    <title>Group 63</title>
    <defs>
        <polygon id="path-1" points="0.580263158 0.636578947 9.00328947 0.636578947 9.00328947 11.8421053 0.580263158 11.8421053"></polygon>
        <polygon id="path-3" points="0.562236842 0.150701754 11.5048246 0.150701754 11.5048246 9.89304743 0.562236842 9.89304743"></polygon>
    </defs>
    <g id="Wireframes" stroke="none" stroke-width="1" fill="none" fill-rule="evenodd">
        <g id="Homepage_image" transform="translate(-1264.000000, -2926.000000)">
            <g id="Group-63" transform="translate(1264.000000, 2926.000000)">
                <path d="M82.4944265,143.90897 C82.9218059,146.5739 84.0631034,147.099379 86.2485667,146.775646 C86.9964808,146.663044 87.6861158,146.545749 88.3271851,146.419071 C88.1766309,145.377496 87.9920807,144.138867 87.8026739,142.956539 C87.5501315,141.375409 87.3898642,140.390136 87.2587364,139.639451 C86.5351052,139.705136 85.9863111,139.789588 85.2092575,139.902191 C82.980085,140.235307 82.0524772,141.159587 82.4944265,143.90897 L82.4944265,143.90897 Z M86.5351052,148.553831 C82.897523,149.093385 81.0034548,148.014276 80.4012383,144.265545 C79.8038783,140.526197 81.1151563,138.696404 84.9130058,138.128698 L89.123665,137.5 C89.3082152,138.935684 89.5607577,140.488663 89.9104318,142.698491 C90.2649625,144.908319 90.5417878,146.644277 90.7894737,147.915749 L86.5351052,148.553831 Z" id="Fill-1" fill="#000000"></path>
                <g id="Group-5" transform="translate(66.447368, 138.157895)">
                    <mask id="mask-2" fill="white">
                        <use xlink:href="#path-1"></use>
                    </mask>
                    <g id="Clip-4"></g>
                    <path d="M0.580263158,11.4580702 C0.603289474,11.2699123 0.621710526,10.8839474 0.630921053,10.6089474 C0.644736842,10.305 0.667763158,9.85631579 0.663157895,9.64403509 C2.7125,9.755 4.92763158,9.87561404 6.56710526,9.95280702 L6.68684211,7.21245614 C4.70657895,7.11596491 2.55592105,7.01464912 0.902631579,6.97605263 C0.934868421,6.59008772 0.971710526,5.64929825 0.990131579,5.25850877 C2.61578947,5.36947368 4.80328947,5.47561404 6.76052632,5.5672807 L6.88486842,2.78350877 C5.24539474,2.70631579 2.95657895,2.60982456 0.971710526,2.52780702 C0.994736842,2.29622807 1.01315789,1.86201754 1.03157895,1.53394737 C1.04078947,1.27342105 1.05921053,0.868157895 1.05460526,0.636578947 L9.00328947,1.0177193 C8.90197368,2.38789474 8.82828947,4.11991228 8.72697368,6.43087719 C8.62565789,8.72254386 8.54276316,10.5558772 8.52894737,11.8440351 L0.580263158,11.4580702 Z" id="Fill-3" fill="#000000" mask="url(#mask-2)"></path>
                </g>
                <path d="M53.6202672,135.45643 C52.9799656,137.512033 52.5069069,139.17401 51.8713836,141.428856 C51.6515786,142.211248 51.3696547,143.081113 51.1116227,143.902383 L51.1785199,143.9364 C51.6515786,143.178305 52.1819777,142.395912 52.6598148,141.803043 L56.9842401,136.413768 L57.8921305,136.676185 L58.8334694,143.717718 C58.9385936,144.519549 59.0007124,145.428291 59.0389394,146.25442 L59.12495,146.264139 C59.3447551,145.374836 59.5406683,144.446656 59.7604733,143.58651 C60.3912182,141.302507 60.787823,139.766879 61.3230005,137.652961 L63.1578947,138.177796 C62.6943928,139.679406 62.2786746,141.205315 61.6622648,143.435863 C61.0267415,145.734445 60.5966882,147.304089 60.2430887,148.684211 L57.6102066,147.930975 C57.4334069,146.793833 57.098921,144.082187 56.7166513,141.419137 C56.635419,140.850566 56.5589651,140.058454 56.506403,139.319797 L56.4538409,139.305219 C56.0429011,139.883509 55.5937343,140.481237 55.1971295,140.952617 C53.5581484,143.013079 51.8666053,145.161014 51.1068444,146.079475 L48.6842105,145.384555 C49.1047071,144.023872 49.5490956,142.459087 50.1846189,140.160505 C50.7962503,137.929957 51.2071901,136.399189 51.5655679,134.868421 L53.6202672,135.45643 Z" id="Fill-6" fill="#000000"></path>
                <path d="M40.3633435,133.752892 C40.1545097,134.997229 39.9271129,136.295034 39.7600459,137.364387 C39.6161826,138.448321 39.4862415,139.187146 39.3980673,139.721823 C39.7832496,139.342689 40.298373,138.842037 41.1337082,138.078908 C41.8901507,137.369247 42.7950972,136.489462 43.6768399,135.668005 C43.1106683,135.322896 42.4888076,134.968065 42.052577,134.710449 C41.5885019,134.44311 40.9527189,134.078559 40.3633435,133.752892 L40.3633435,133.752892 Z M41.156912,129.499786 C41.0501747,129.917806 40.8552632,130.889944 40.6464294,132.100257 C41.4028718,132.537719 42.182518,132.989763 42.7765342,133.334873 C43.3148613,133.645957 44.1316335,134.117444 44.8741537,134.545185 C45.7048482,133.748031 46.3916794,133.077256 46.7397358,132.727286 L48.6842105,133.854967 C46.6190762,135.575652 41.4028718,140.343991 40.2287617,141.447368 L37.5,139.872504 C37.7413191,138.180983 38.7808473,131.205889 39.0639332,128.289474 L41.156912,129.499786 Z" id="Fill-8" fill="#000000"></path>
                <path d="M21.7105263,127.884312 C22.5208197,126.992957 23.8163188,125.576424 25.3447166,123.846713 C26.931339,122.049548 28.0084955,120.830559 28.9400903,119.736842 L30.628606,121.206374 C30.3568908,122.415726 29.9202057,126.063056 29.5854138,128.94912 C29.4495563,129.77784 29.2700302,130.601742 29.0371315,131.343735 L29.0468356,131.353371 C29.6193782,130.621014 30.1725127,129.927202 30.7110909,129.296026 C32.7489546,126.968866 34.1463468,125.393335 34.680073,124.742887 L36.1842105,126.05342 C35.2283554,127.108592 34.0929742,128.370944 32.5500203,130.110292 C31.0216225,131.844821 29.8280167,133.193899 28.9643506,134.210526 L27.0138239,132.509724 C27.2224624,131.575005 27.6348872,127.730132 28.0327558,124.974157 C28.134649,124.289982 28.3287312,123.51908 28.5616299,122.815632 L28.5325176,122.805996 C28.0181996,123.499807 27.5038816,124.145438 26.9944157,124.723614 C25.5096865,126.400326 23.830875,128.366126 23.2001076,129.185209 L21.7105263,127.884312 Z" id="Fill-10" fill="#000000"></path>
                <path d="M16.9269881,113.749722 C14.7383527,115.413011 14.7856234,116.678662 16.0713877,118.453484 C16.5110056,119.064488 16.9269881,119.617301 17.3287895,120.121622 C18.1938441,119.486371 19.2148922,118.72989 20.1792154,117.992806 C21.4791609,117.003561 22.2922177,116.392557 22.8972832,115.912482 C22.5096631,115.301478 22.1882221,114.860198 21.7344229,114.224947 C20.4250233,112.416181 19.1818027,112.033091 16.9269881,113.749722 L16.9269881,113.749722 Z M14.6107216,119.563959 C12.478811,116.605924 12.5828067,114.409218 15.6601322,112.067036 C18.7232765,109.739401 20.9544556,110.020657 23.1856348,113.104773 L25.6578947,116.533185 C24.4572178,117.386651 23.1809077,118.356499 21.3657111,119.733683 C19.5552416,121.110866 18.1323921,122.192247 17.1113441,123.026316 L14.6107216,119.563959 Z" id="Fill-12" fill="#000000"></path>
                <path d="M5.26315789,102.495922 C5.43904016,102.430055 5.78605111,102.27009 6.03323699,102.157173 C6.30419075,102.030142 6.70349103,101.846653 6.88888044,101.747851 C7.77304533,103.65802 8.72851384,105.718744 9.44630362,107.23841 L11.8991482,106.109247 C11.0339976,104.264946 10.0975434,102.274795 9.33221783,100.759833 C9.68873593,100.609278 10.5253651,100.22348 10.8771296,100.063515 C11.5616444,101.583182 12.5171129,103.615677 13.3727563,105.431748 L15.8636294,104.27906 C15.1505932,102.759394 14.1380818,100.642212 13.2539169,98.8073207 C13.4678278,98.7273383 13.8576209,98.548554 14.1523426,98.4121134 C14.3852677,98.3039019 14.7465394,98.1345273 14.9461895,98.0263158 L18.4210526,105.403519 C17.1756161,105.925757 15.6259507,106.645599 13.5628993,107.595979 C11.509355,108.546358 9.86937177,109.299134 8.73802099,109.868421 L5.26315789,102.495922 Z" id="Fill-14" fill="#000000"></path>
                <path d="M5.54102628,81.0369607 C2.83988807,81.3733674 2.28168437,82.4471039 2.55605568,84.5300604 C2.64593594,85.2443486 2.75000781,85.903337 2.85881023,86.5162424 C3.9137206,86.3964263 5.16731364,86.2535686 6.3641402,86.1061027 C7.97252373,85.903337 8.97066762,85.7789126 9.72755398,85.6729215 C9.68024859,84.9816748 9.60929049,84.4609357 9.51467969,83.7189977 C9.23557785,81.5945664 8.32731421,80.6913374 5.54102628,81.0369607 L5.54102628,81.0369607 Z M0.753720027,84.7558676 C0.294857669,81.2904178 1.43491775,79.5162182 5.23827174,79.0415621 C9.02270356,78.5669061 10.8392308,79.8618415 11.3122848,83.4793655 L11.8421053,87.4978126 C10.385099,87.6360619 8.80982927,87.8342193 6.57228395,88.1153262 C4.33473864,88.3918249 2.57497784,88.6130238 1.28827102,88.8157895 L0.753720027,84.7558676 Z" id="Fill-16" fill="#000000"></path>
                <path d="M0.581427682,65.1315789 C0.7657828,65.1608807 1.1486742,65.1901825 1.41338924,65.209717 C1.71119366,65.2292515 2.15080972,65.263437 2.36352716,65.263437 C2.19808026,67.4366523 2.02317925,69.790562 1.90027584,71.5291343 L4.58996975,71.7244795 C4.73178138,69.619635 4.89250122,67.3438634 4.96813409,65.5857565 C5.35102549,65.6297092 6.26807403,65.69808 6.65096543,65.7273818 C6.50442675,67.4464196 6.3437069,69.7710275 6.19716822,71.8465703 L8.92940561,72.0467991 C9.04758197,70.3082268 9.20357477,67.8810627 9.33593229,65.7762181 C9.55810384,65.8104035 9.98353873,65.8397053 10.3097055,65.8641235 C10.5602394,65.883658 10.9573119,65.9129598 11.1842105,65.9129598 L10.6027828,74.3421053 C9.26029942,74.1955964 7.56801397,74.0735056 5.30375495,73.9074622 C3.05367709,73.7414188 1.2621235,73.6095608 0,73.5607245 L0.581427682,65.1315789 Z" id="Fill-18" fill="#000000"></path>
                <path d="M13.311255,48.3919121 C12.5237897,48.0803698 11.8382317,48.3871918 10.7172517,50.4735813 C9.22106758,53.2349791 7.9148016,53.7683773 6.31207809,53.1311317 C4.67229739,52.4844454 4.08864663,50.7237592 5.11698368,48.0190054 C6.2564923,45.040472 7.74341209,44.2946586 9.43877858,44.9649466 C9.65648957,45.0499127 9.82324693,45.1348788 10.0455901,45.2576076 C9.9529471,45.4653025 9.81861478,45.7862855 9.68891462,46.1167091 C9.55921445,46.4565735 9.43877858,46.8200395 9.36929634,47.0135734 C9.23496403,46.9474887 9.06357452,46.8814039 8.96166724,46.8389209 C8.1047197,46.5037769 7.34504729,46.8672429 6.65022496,48.6845731 C6.09436709,50.1525983 6.2750209,50.9220134 7.03006117,51.2146744 C7.66003341,51.4648523 8.331695,51.3515642 9.51752511,49.1707679 C10.9673877,46.5415396 12.2227,45.8523702 13.9551237,46.5368192 C15.7153403,47.2354293 16.3314161,48.9819544 15.2613897,51.7858353 C14.0940882,54.8587755 12.5793755,55.746199 10.7682053,55.0287076 C10.5643908,54.9484619 10.3698405,54.8729365 10.1567617,54.7596484 C10.2818297,54.5519535 10.4254263,54.2120891 10.5551265,53.8722248 C10.7033552,53.4898774 10.8191589,53.1405724 10.9118019,52.8573521 C10.9951806,52.9092758 11.0878236,52.9423182 11.1804666,52.9800809 C12.2782858,53.4096316 13.0425904,52.9281571 13.7049877,51.1863523 C14.3534885,49.4870306 14.1265132,48.7128951 13.311255,48.3919121" id="Fill-20" fill="#000000"></path>
                <path d="M18.4567674,34.5408407 C16.4499188,33.2043287 14.8181821,33.5098172 13.7538021,35.1661374 C12.6800443,36.8367774 13.0270228,38.4787778 15.0573159,39.8296096 C17.0735423,41.1756681 18.756857,40.8892727 19.8306147,39.2186327 C20.9043725,37.5479927 20.4636161,35.8773527 18.4567674,34.5408407 M21.3826402,40.2687492 C19.6289921,42.994279 16.8625419,43.5766164 13.8522689,41.5670752 C10.841996,39.5623072 10.5090842,36.7794983 12.2017766,34.1494336 C13.8991579,31.5050492 16.5436968,30.6935955 19.5539697,32.6983635 C22.5642427,34.7079047 23.1362883,37.5384462 21.3826402,40.2687492" id="Fill-22" fill="#000000"></path>
                <path d="M25.7122652,18.4210526 C26.2817689,19.0600731 26.8606087,19.6664429 27.7522088,20.5713333 C28.363725,21.1916962 29.2880016,22.0872578 30.058232,22.8662098 C32.0001463,24.8392438 32.2242133,26.9941888 29.8995178,29.284401 C27.5748224,31.5746131 25.4135091,31.3320652 23.4669268,29.3590311 C22.6966963,28.5800791 21.8144324,27.6472025 21.2029161,27.0268395 C20.311316,26.1172848 19.6997998,25.5202438 19.0789474,24.951189 L20.6147402,23.4399289 C21.5763612,24.4940795 23.7516786,26.7376478 24.8720138,27.8710929 C26.1884076,29.2097708 27.3880998,29.1864489 28.6438088,27.9503874 C29.8808456,26.7329834 29.8668414,25.5855451 28.5504476,24.2515316 C27.4301124,23.1134221 25.2081143,20.9025045 24.1951446,19.9136552 L25.7122652,18.4210526 Z" id="Fill-24" fill="#000000"></path>
                <path d="M45.5432682,18.0293322 C44.5213727,16.2011674 43.6610792,14.757386 42.4918407,12.802656 C42.0830825,12.1276414 41.6600653,11.3448118 41.2513071,10.6135459 L41.184765,10.6416716 C41.3938971,11.4854399 41.5887702,12.3854595 41.6838303,13.1167254 L42.5536297,19.7918705 L41.7456193,20.2700059 L36.0847936,16.252731 C35.4431382,15.7980337 34.7491999,15.2355214 34.1360626,14.71051 L34.0695206,14.7667612 C34.5543268,15.5167775 35.0819101,16.2714814 35.5381983,17.0027473 C36.7312019,18.9715401 37.5534713,20.2746935 38.6941918,22.0653574 L37.059159,23.0263158 C36.3081847,21.6997245 35.5096803,20.3825083 34.3451947,18.4605915 C33.1426851,16.4777359 32.3204157,15.123019 31.5789474,13.9558061 L33.9221775,12.5729635 C34.853766,13.2057898 37.016382,14.7714488 39.1742451,16.2714814 C39.6305333,16.5902384 40.2484236,17.0636862 40.8092779,17.5230712 L40.8615609,17.4902579 C40.7284768,16.8152433 40.6096518,16.0933526 40.5478627,15.4933395 C40.2056466,12.9526593 39.8396654,10.318227 39.7065813,9.16507696 L41.8644444,7.89473684 C42.5441237,9.09945053 43.3521341,10.4588551 44.5546437,12.4417107 C45.7191292,14.3636275 46.5318926,15.676156 47.3684211,16.9511837 L45.5432682,18.0293322 Z" id="Fill-26" fill="#000000"></path>
                <path d="M51.8492029,15.1315789 C51.3381743,13.7088525 50.7878358,12.3000744 49.9770692,10.2217779 C49.1613889,8.13418263 48.6110504,6.72075507 48.0263158,5.34452297 L50.1195676,4.60526316 C50.6207687,6.00474242 51.1711072,7.41352055 51.9867875,9.5057653 C52.7975541,11.5794123 53.3478926,12.9928399 53.9473684,14.3969686 L51.8492029,15.1315789 Z" id="Fill-28" fill="#000000"></path>
                <path d="M64.4645328,8.76598431 C64.29546,7.91736558 63.6614372,7.49777076 61.2897223,7.66277996 C58.1524836,7.86550555 56.9877603,7.03103046 56.6402219,5.31022026 C56.287987,3.54697912 57.4480139,2.09489819 60.2846788,1.51972327 C63.4125246,0.887973773 64.8543394,1.76487979 65.2206636,3.58469551 C65.2676283,3.82042294 65.2911106,4.00429033 65.3286823,4.25887595 C65.103252,4.29187779 64.7557136,4.34845237 64.4081752,4.4191706 C64.0512438,4.48988882 63.6802231,4.57946524 63.4594892,4.63603983 C63.4453998,4.48045973 63.4078281,4.29659234 63.3843458,4.18815772 C63.2011836,3.26882076 62.4732315,2.81150956 60.5664667,3.19810254 C59.0307226,3.50926274 58.4859327,4.08443765 58.6456125,4.89062545 C58.78181,5.56952043 59.24676,6.08340621 61.7311901,5.92311157 C64.7369277,5.74867327 66.0002768,6.46057009 66.3759941,8.32281675 C66.7564077,10.2086361 65.6292561,11.6795753 62.679876,12.2783229 C59.4581009,12.9336452 57.8847851,12.1085992 57.4902821,10.1662052 C57.4480139,9.94462143 57.4057457,9.7371813 57.3869598,9.49202478 C57.6264796,9.48731023 57.9928038,9.43073565 58.3497352,9.35530287 C58.7536312,9.27515555 59.1058661,9.18557912 59.3970469,9.1148609 C59.4017434,9.21386642 59.4205292,9.31287193 59.4393151,9.41187745 C59.6788348,10.5905146 60.5054127,10.9865367 62.3323376,10.6140873 C64.1169943,10.2510671 64.6429984,9.64289033 64.4645328,8.76598431" id="Fill-30" fill="#000000"></path>
                <path d="M77.6132098,8.08983165 C77.627503,7.21499063 77.0938921,6.6604466 74.7069361,6.30668574 C71.5481501,5.82863054 70.5714516,4.74822578 70.6000379,2.96507987 C70.6286242,1.13890899 72.0912898,-0.0418873594 75.0309142,0.00113760897 C78.2659303,0.0489431293 79.5094343,1.23452003 79.480848,3.11327698 C79.4760836,3.36186569 79.4617905,3.54830722 79.4427329,3.80645703 C79.2092782,3.78733482 78.8567138,3.76821261 78.4993851,3.76343206 C78.1229988,3.75387096 77.7370838,3.76343206 77.5083934,3.77777372 C77.5226865,3.61523495 77.5274509,3.42879342 77.5274509,3.31406017 C77.5417441,2.36751087 76.9223743,1.75560021 74.9451553,1.72213634 C73.3538513,1.70301413 72.6916021,2.15238603 72.6773089,2.98420208 C72.6677802,3.68694323 73.0155801,4.29885389 75.5168813,4.68129805 C78.5327358,5.15935326 79.6333083,6.13936642 79.604722,8.06592889 C79.5761357,10.0163941 78.137292,11.2306543 75.0880868,11.1828488 C71.7530186,11.1350433 70.3665831,9.97814971 70.3951694,7.9655373 C70.3999338,7.7360708 70.4046982,7.52094596 70.4380489,7.27713781 C70.676268,7.32016278 71.0526543,7.34406554 71.4242762,7.34884609 C71.8387775,7.35362664 72.2103994,7.34406554 72.5105555,7.33450443 C72.4962624,7.43489602 72.4962624,7.53528762 72.491498,7.63567921 C72.4724405,8.85950053 73.2109198,9.43316678 75.1023799,9.46185009 C76.9461962,9.48575285 77.6036811,8.99335599 77.6132098,8.08983165" id="Fill-32" fill="#000000"></path>
                <path d="M84.0292763,11.5049665 C84.2963816,9.9511968 84.5266447,8.38765492 84.8628289,6.08631671 C85.1990132,3.7703203 85.4246711,2.21166448 85.6088816,0.657894737 L87.68125,0.999919524 C87.41875,2.52437286 87.1930921,4.08302867 86.8523026,6.39902509 C86.5207237,8.70036329 86.2904605,10.2639052 86.1016447,11.8421053 L84.0292763,11.5049665 Z" id="Fill-34" fill="#000000"></path>
                <path d="M99.5923096,9.83156564 C100.337045,7.53947493 99.6385664,6.03189362 97.8160468,5.41279282 C95.9842758,4.79369203 94.5364367,5.54511971 93.7824501,7.86556619 C93.037715,10.1718348 93.7269419,11.7361276 95.5633386,12.3599544 C97.3951095,12.9837811 98.8475744,12.1236564 99.5923096,9.83156564 M94.971251,14.1369154 C91.9784333,13.120834 90.7341242,10.5735414 91.8535398,7.13776831 C92.9683297,3.69726926 95.4847019,2.66228397 98.3757546,3.64055774 C101.280684,4.62355747 102.710021,6.9959895 101.595231,10.4364886 C100.475815,13.8722616 97.9686944,15.1482709 94.971251,14.1369154" id="Fill-36" fill="#000000"></path>
                <path d="M117.105263,13.329442 C116.477931,14.3212968 115.469373,15.9026503 114.287093,17.8161816 C113.061382,19.8092484 112.226547,21.1613524 111.517179,22.3684211 L109.601403,21.2596022 C109.649659,20.0572121 109.408377,16.4968275 109.220178,13.6850126 C109.196049,12.870943 109.229829,12.0568735 109.31669,11.3036252 L109.307039,11.2942681 C108.877558,12.0989805 108.462553,12.8569073 108.052374,13.5493343 C106.479218,16.1272212 105.403101,17.8770029 104.997748,18.5928226 L103.289474,17.6056464 C104.032621,16.4313276 104.915712,15.0230809 106.102818,13.0955139 C107.285098,11.1773041 108.206794,9.68016469 108.867906,8.55263158 L111.082872,9.83923575 C111.049093,10.7702693 111.343456,14.5084392 111.454446,17.2079687 C111.478574,17.8816814 111.425492,18.6489654 111.32898,19.3647851 L111.357933,19.3647851 C111.734333,18.6162154 112.120383,17.9097528 112.516085,17.26879 C113.659761,15.4114014 114.948205,13.2405493 115.411466,12.3469442 L117.105263,13.329442 Z" id="Fill-38" fill="#000000"></path>
                <path d="M127.483667,29.6556022 C128.390228,30.7199142 129.362211,30.7822388 130.208022,30.0199613 C131.264119,29.0707101 131.114583,28.246108 130.049141,26.9996165 C129.722031,26.6208748 128.880892,25.657241 128.366863,25.101114 C127.460302,25.9161277 126.544396,26.7263472 125.698584,27.5078015 C126.011675,27.8961315 126.712623,28.7399104 127.483667,29.6556022 L127.483667,29.6556022 Z M127.773393,31.5253395 C128.572475,32.7430658 128.591167,33.3759 127.81545,34.7614233 C127.310767,35.6579383 126.890197,36.4058332 126.679913,36.8421053 L125.376147,35.3175503 C125.123806,35.0251042 125.189228,34.9052492 125.721949,34.0854413 C126.927581,32.1342027 127.109828,31.6212235 126.249997,30.6144419 C125.665873,29.9336657 125.320072,29.5549241 124.502298,28.6008786 C123.394798,29.6220429 122.450854,30.5281463 121.834019,31.1801572 L120.394737,29.5021879 C121.553639,28.4762295 122.693849,27.4886247 124.3808,25.9688639 C126.058404,24.4586914 127.189269,23.4183504 128.310787,22.3684211 L131.581882,26.189397 C133.21743,28.0974878 133.380985,29.9049005 131.754783,31.367131 C130.446345,32.5512979 129.193983,32.6423877 127.81545,31.4869859 L127.773393,31.5253395 Z" id="Fill-40" fill="#000000"></path>
                <path d="M139.890568,35.988729 C140.037425,35.7879642 140.184282,35.5585187 140.297977,35.3768743 C140.937515,35.8166449 144.092567,38.0011573 144.736842,38.3931267 C144.495239,38.7133944 144.149415,39.1770655 143.898337,39.5451343 C143.325122,38.9858609 140.534843,36.528882 139.890568,35.988729 L139.890568,35.988729 Z M142.263963,41.404599 C142.098157,41.4858609 141.766545,41.6770655 141.529679,41.8109087 C141.269127,41.9590923 140.885404,42.1789776 140.705386,42.2984804 C139.677389,40.4342357 138.559382,38.4170273 137.725615,36.9304116 L135.375906,38.2784039 C136.384954,40.070947 137.479274,42.0164537 138.360415,43.4935091 C138.014591,43.6703734 137.213985,44.1340445 136.882372,44.3252491 C136.077029,42.8386334 134.96376,40.8548858 133.968923,39.0814632 L131.581316,40.448576 C132.415084,41.9351917 133.589938,43.9954212 134.613198,45.7831841 C134.409494,45.8835665 134.039983,46.0986716 133.755744,46.2611955 C133.53309,46.3902586 133.182529,46.5862433 132.993036,46.7105263 L128.947368,39.5164537 C130.145909,38.8806984 131.628689,38.029838 133.60415,36.8969508 C135.570136,35.7736238 137.138188,34.8749623 138.218296,34.2105263 L142.263963,41.404599 Z" id="Fill-42" fill="#000000"></path>
                <path d="M139.665884,56.4985231 C140.47352,56.2216275 140.812356,55.5341626 140.366764,53.1614538 C139.795849,50.015347 140.47352,48.7406724 142.112,48.1821072 C143.796895,47.6092197 145.351827,48.6022246 146.252294,51.3950509 C147.245593,54.4743208 146.558639,56.0402131 144.822686,56.6321968 C144.595248,56.7085818 144.418868,56.7515483 144.177505,56.7945149 C144.121806,56.5749081 144.024333,56.2311756 143.917577,55.8922172 C143.801537,55.5389366 143.671573,55.1761079 143.588024,54.9803714 C143.736555,54.9469529 143.908293,54.8848901 144.01505,54.8514717 C144.887668,54.5507058 145.249712,53.7629856 144.646305,51.8820052 C144.158939,50.3686275 143.532325,49.8912213 142.761822,50.1490207 C142.116641,50.3734016 141.671049,50.9033225 142.116641,53.3953828 C142.650424,56.4030418 142.102717,57.7684235 140.329631,58.3747294 C138.528696,58.9905834 136.955198,58.0309969 136.017598,55.1283673 C134.996449,51.9536161 135.609138,50.2635982 137.465773,49.6286479 C137.679285,49.557037 137.874232,49.4902001 138.110953,49.4376855 C138.143444,49.6859367 138.245559,50.0439913 138.361599,50.3972719 C138.486921,50.793519 138.612244,51.1420256 138.719001,51.4236952 C138.621527,51.4427915 138.528696,51.4714358 138.435864,51.5048543 C137.3126,51.8915533 137.024822,52.7747548 137.60502,54.5745761 C138.171294,56.3266568 138.830399,56.7849668 139.665884,56.4985231" id="Fill-44" fill="#000000"></path>
                <path d="M137.5,63.2934211 C139.065009,63.0907895 140.625143,62.8467105 142.91659,62.4921053 C145.227539,62.1328947 146.787673,61.8888158 148.32343,61.6078947 L148.684211,63.6756579 C147.148454,63.8736842 145.58832,64.1177632 143.282247,64.4769737 C140.985924,64.8361842 139.430666,65.0802632 137.860781,65.3657895 L137.5,63.2934211 Z" id="Fill-46" fill="#000000"></path>
                <g id="Group-50" transform="translate(138.157895, 69.736842)">
                    <mask id="mask-4" fill="white">
                        <use xlink:href="#path-3"></use>
                    </mask>
                    <g id="Clip-49"></g>
                    <path d="M6.20214912,7.77350877 C8.98592105,7.73008772 9.68065789,6.67350877 9.64688596,4.46868421 C9.63723684,3.71605263 9.61311404,3.02131579 9.57451754,2.37 C8.48416667,2.37 7.19600877,2.37482456 5.96092105,2.39412281 C4.30609649,2.42307018 3.27846491,2.43754386 2.4920614,2.46166667 C2.46311404,3.19017544 2.47276316,3.74017544 2.48241228,4.52175439 C2.51618421,6.77 3.33153509,7.81692982 6.20214912,7.77350877 L6.20214912,7.77350877 Z M11.5043421,4.4445614 C11.5574123,8.11122807 10.1920614,9.82877193 6.27934211,9.89149123 C2.37627193,9.94938596 0.682850877,8.39587719 0.62495614,4.56517544 L0.562236842,0.319561404 C2.05785088,0.334035088 3.68372807,0.314736842 5.98504386,0.276140351 C8.29118421,0.242368421 10.1052193,0.213421053 11.4367982,0.150701754 L11.5043421,4.4445614 Z" id="Fill-48" fill="#000000" mask="url(#mask-4)"></path>
                </g>
                <path d="M147.09258,94.0789474 C146.916247,94.0283637 146.549662,93.9547874 146.289804,93.9042037 C146.002104,93.8444229 145.579834,93.7616496 145.37102,93.7340585 C145.797929,91.7199073 146.252681,89.5402094 146.582144,87.9307279 L143.988203,87.4110953 C143.589135,89.3608672 143.157585,91.4715873 142.865245,93.1086599 C142.5033,93.0212881 141.612358,92.8419458 141.245772,92.7683695 C141.593796,91.1726836 142.034627,89.0205768 142.429055,87.098396 L139.788711,86.5695664 C139.459248,88.1790479 139.018417,90.4323221 138.63327,92.3866925 C138.415175,92.3269118 138.006826,92.2441384 137.695925,92.1797592 C137.445347,92.133774 137.064841,92.0555992 136.842105,92.028008 L138.438377,84.2105263 C139.728386,84.5140285 141.366421,84.8405234 143.552013,85.2773826 C145.728325,85.7142419 147.463805,86.0637293 148.684211,86.2660642 L147.09258,94.0789474 Z" id="Fill-51" fill="#000000"></path>
                <path d="M141.585485,109.210526 C140.483316,108.717287 138.73338,107.933906 136.606387,107.015126 C134.406882,106.067332 132.913152,105.424186 131.578947,104.877754 L132.463583,102.822588 C133.701107,102.706532 137.32183,101.986015 140.178769,101.415405 C141.01023,101.280005 141.851359,101.202634 142.634479,101.188127 L142.639313,101.17362 C141.764346,100.859301 140.928051,100.549817 140.164267,100.235498 C137.312162,99.0217412 135.378531,98.1900037 134.590577,97.8805199 L135.378531,96.0526316 C136.683732,96.6280779 138.240304,97.314745 140.376966,98.2335248 C142.499125,99.1523047 144.152379,99.8631502 145.394737,100.366061 L144.369913,102.745218 C143.407932,102.841931 139.613182,103.639819 136.857758,104.118552 C136.176154,104.234608 135.378531,104.282965 134.638918,104.282965 L134.638918,104.316815 C135.455876,104.587613 136.234163,104.877754 136.939938,105.182402 C138.99442,106.067332 141.387288,107.053811 142.368605,107.392309 L141.585485,109.210526 Z" id="Fill-53" fill="#000000"></path>
                <path d="M134.045589,121.052632 L133.292651,120.532814 L132.511119,119.993743 C133.154453,119.074435 133.797787,118.150314 134.336281,117.356148 C131.0386,115.074724 127.740919,112.788487 126.973684,112.3168 C127.169067,112.080957 127.426401,111.70072 127.607487,111.426371 C127.779043,111.176088 128.031611,110.81029 128.184105,110.526316 C128.889389,111.0702 132.18707,113.351623 135.499047,115.642673 C136.037541,114.843694 136.657048,113.909946 137.281319,112.96176 L138.062851,113.50083 L138.815789,114.020648 L134.045589,121.052632 Z" id="Fill-55" fill="#000000"></path>
                <path d="M123.156691,117.763158 C124.247165,118.803467 125.36572,119.811555 127.013131,121.298368 C128.669903,122.789785 129.788457,123.802476 130.921053,124.769135 L129.479568,126.315789 C128.412495,125.298496 127.28926,124.285805 125.632488,122.794388 C123.989757,121.307575 122.871202,120.299487 121.710526,119.309812 L123.156691,117.763158 Z" id="Fill-57" fill="#000000"></path>
                <path d="M118.564385,136.184211 C118.459275,136.035639 118.21561,135.743138 118.048389,135.534209 C117.862057,135.311351 117.58017,134.972421 117.436838,134.819207 C119.104269,133.533132 120.910255,132.14027 122.238467,131.100267 L120.537591,129.043476 C118.927493,130.297051 117.188396,131.657412 115.879295,132.734558 C115.645186,132.432771 115.062302,131.731698 114.818637,131.439197 C116.156404,130.431694 117.928945,129.043476 119.510377,127.808472 L117.780836,125.714538 C116.457402,126.754541 114.613194,128.207759 113.012651,129.475263 C112.883652,129.294191 112.611321,128.96919 112.405879,128.718475 C112.243435,128.523474 111.994993,128.221688 111.842105,128.054544 L118.272943,123.026316 C119.094714,124.08489 120.169705,125.384894 121.603027,127.116685 C123.031571,128.83919 124.168673,130.218122 125,131.155982 L118.564385,136.184211 Z" id="Fill-59" fill="#000000"></path>
                <path d="M111.211977,140.789474 C110.841097,140.023575 109.901854,138.242862 108.697697,136.040904 C108.100435,134.944712 107.426107,133.747996 106.987794,132.939015 C105.817353,133.570882 104.198966,134.442091 102.898477,135.198416 C102.749161,134.915991 102.599846,134.619205 102.45053,134.341567 C102.291582,134.049568 102.127816,133.781504 101.973684,133.503865 L107.975203,130.263158 C108.408699,131.057777 109.420191,133.001245 110.528016,135.021302 C111.794789,137.333357 112.628066,138.865154 113.157895,139.74115 L111.211977,140.789474 Z" id="Fill-61" fill="#000000"></path>
            </g>
        </g>
    </g>
</svg>