<?xml version="1.0" encoding="UTF-8"?>
<svg width="29px" height="24px" viewBox="0 0 29 24" version="1.1" xmlns="http://www.w3.org/2000/svg" xmlns:xlink="http://www.w3.org/1999/xlink">
    <title>twitter-social-logotype</title>
    <g id="Wireframes" stroke="none" stroke-width="1" fill="none" fill-rule="evenodd">
        <g id="Press-post" transform="translate(-138.000000, -1640.000000)" fill="#000000" fill-rule="nonzero">
            <g id="twitter-social-logotype" transform="translate(138.000000, 1640.000000)">
                <path d="M28.8588469,2.8578 C28.8174184,2.8083 28.7490612,2.7915 28.6907653,2.8185 C27.8269796,3.207 26.9182143,3.4863 25.9822245,3.6513 C26.9759184,2.8935 27.7163061,1.8441 28.0959694,0.6408 C28.1143163,0.5832 28.0953776,0.5202 28.0489184,0.4827 C28.0021633,0.4452 27.9373571,0.4404 27.8861633,0.4713 C26.767,1.1442 25.5549184,1.6185 24.2818776,1.8816 C23.1538367,0.6948 21.5786633,0.0159 19.948449,0.0159 C16.6329796,0.0159 13.9359796,2.7501 13.9359796,6.111 C13.9359796,6.5175 13.9747449,6.9201 14.0516837,7.311 C9.45962245,7.0236 5.16584694,4.7886 2.24631633,1.1583 C2.21642857,1.1211 2.17115306,1.1004 2.12380612,1.1052 C2.0767551,1.1088 2.03473469,1.1358 2.01106122,1.1769 C1.47840816,2.1033 1.1969898,3.1632 1.1969898,4.2414 C1.1969898,6.1101 2.03443878,7.8573 3.46046939,9.0102 C2.72629592,8.9208 2.00928571,8.6865 1.36270408,8.3226 C1.31920408,8.2977 1.26505102,8.298 1.22155102,8.3235 C1.17805102,8.3487 1.15053061,8.3955 1.14934694,8.4465 L1.1487551,8.5245 C1.1487551,11.2083 2.89319388,13.5648 5.37506122,14.3472 C4.72137755,14.454 4.04313265,14.4468 3.37642857,14.3178 C3.32730612,14.3085 3.27581633,14.3256 3.24208163,14.364 C3.20864286,14.4024 3.19739796,14.4561 3.21278571,14.5047 C3.95702041,16.8597 6.02489796,18.5112 8.43189796,18.717 C6.42409184,20.2083 4.05082653,20.994 1.54321429,20.994 C1.08128571,20.994 0.616102041,20.9661 0.160387755,20.9118 C0.0952857143,20.9043 0.0307755102,20.9436 0.00828571429,21.0069 C-0.0142040816,21.0708 0.00976530612,21.1422 0.0659897959,21.1785 C2.77956122,22.9428 5.91718367,23.8749 9.14003061,23.8749 C19.6821224,23.8749 25.9816327,15.1935 25.9816327,6.8007 C25.9816327,6.567 25.9771939,6.3345 25.9680204,6.1026 C27.1052347,5.2593 28.0814694,4.227 28.8686122,3.0321 C28.9038265,2.9787 28.8999796,2.9076 28.8588469,2.8578 Z" id="Path"></path>
            </g>
        </g>
    </g>
</svg>